<svg width="297" height="199" fill="none" xmlns="http://www.w3.org/2000/svg"><path d="M118.938 159.82L25.703 77.6l117.454-40.052-24.219 122.272z" fill="#FF7C98"/><path d="M113.823 175.244l-93.235-82.22 117.454-40.051-24.219 122.271z" fill="#EC4257"/><path d="M169.52 102.718c0 .16.053.214.16.16.16-.106.24-.106.24 0 0 .054-.373.694-1.12 1.92a150.204 150.204 0 01-2.64 4.16c-1.013 1.494-2 2.934-2.96 4.32-.96 1.387-1.653 2.32-2.08 2.8-.853.907-1.6 1.467-2.24 1.68a2.84 2.84 0 01-1.76.08c-.267-.053-.587-.213-.96-.48-.373-.32-.747-.666-1.12-1.04-.32-.426-.613-.853-.88-1.28-.213-.48-.32-.933-.32-1.36a253.578 253.578 0 01-2.4 2.96 74.773 74.773 0 01-2 2.24c-.64.694-1.12 1.174-1.44 1.44-.693.48-1.2.747-1.52.8-.267.107-.613.107-1.04 0-.427-.106-.907-.4-1.44-.88-.533-.48-1.013-.88-1.44-1.2-.427-.32-.933-.906-1.52-1.76a4.476 4.476 0 01-.72-2.96c.107-2.08.56-4.32 1.36-6.72.747-2.4 1.947-4.64 3.6-6.72.8-1.013 1.76-1.893 2.88-2.64 1.173-.8 2.32-1.386 3.44-1.76 1.12-.426 2.16-.586 3.12-.48.96.054 1.707.4 2.24 1.04 1.067 1.28 1.84 2.267 2.32 2.96.48.64.747 1.174.8 1.6.053.214 0 .374-.16.48a.983.983 0 01-.56 0c-.16-.106-.373-.24-.64-.4a2.134 2.134 0 01-.48-.72c-.267-.586-.613-1.013-1.04-1.28-.373-.266-.853-.186-1.44.24-.373.32-.987 1.014-1.84 2.08-.853 1.014-1.733 2.267-2.64 3.76a43.025 43.025 0 00-2.56 4.96 21.011 21.011 0 00-1.6 5.52c.053.054.16.08.32.08.107 0 .267-.026.48-.08.213-.053.453-.186.72-.4.427-.32.907-.773 1.44-1.36a35.78 35.78 0 001.44-1.84c.48-.64.907-1.2 1.28-1.68s.613-.8.72-.96c.107-.16.24-.453.4-.88l.56-1.68c.213-.64.48-1.306.8-2 .373-.693.8-1.333 1.28-1.92.32-.373.613-.666.88-.88.267-.16.507-.266.72-.32.213-.053.4.054.56.32.16.374.293.614.4.72-.107.054-.213.187-.32.4l-.32.32a1.222 1.222 0 01-.24.32l-.24.48c0 .054.027.054.08 0 0-.053.053-.133.16-.24.053-.053.08-.106.08-.16l.16-.16.16-.32c0-.053.027-.08.08-.08l.08-.08c0-.053.053-.133.16-.24.107-.106.16-.186.16-.24.107.107.187.16.24.16.053 0 .133.107.24.32.107.32.293.4.56.24.267-.16.347-.106.24.16-.053.16-.187.427-.4.8-.213.374-.453.8-.72 1.28-.213.48-.427.987-.64 1.52a8.93 8.93 0 00-.32 1.44c-.053.427-.053.614 0 .56.053-.053.133-.186.24-.4.107-.266.213-.56.32-.88.107-.373.213-.64.32-.8.053-.16.16-.453.32-.88l.64-1.44c.267-.48.533-.906.8-1.28.267-.426.507-.693.72-.8.427-.16.693-.133.8.08.16.214.16.507 0 .88-.16.374-.267.747-.32 1.12 0 .32-.053.614-.16.88-.053.16-.267.614-.64 1.36-.32.694-.667 1.467-1.04 2.32-.373.854-.693 1.68-.96 2.48-.213.747-.24 1.227-.08 1.44.107 0 .267-.106.48-.32.427-.32.933-.88 1.52-1.68.32-.426.853-1.146 1.6-2.16.8-1.013 1.6-2.053 2.4-3.12.96-1.226 1.973-2.533 3.04-3.92a.955.955 0 01.16-.24c.16-.16.267-.16.32 0 .053.267.107.32.16.16.053-.16.08-.16.08 0s.053.187.16.08c.16-.106.267-.106.32 0zm-23.28.64c-.427.64-.773 1.2-1.04 1.68l-.16.4-.08.16c-.053.107-.053.107 0 0l.48-.72c.107-.32.187-.48.24-.48 0-.106.08-.24.24-.4l.32-.64.08-.08h-.08v.08zm-4.16 8c.107-.213.213-.48.32-.8a9.37 9.37 0 01.24-1.04c.107-.373.24-.72.4-1.04.107-.373.213-.693.32-.96.107-.266.213-.506.32-.72l.32-.8c.107-.213.187-.4.24-.56l.24-.48c.16-.266.24-.426.24-.48a2.42 2.42 0 00.24-.32c.107-.213.187-.4.24-.56l.08-.08h-.08v.08l-.08.08c-.053.054-.08.107-.08.16 0 .054-.027.08-.08.08-.267.48-.453.854-.56 1.12a.919.919 0 01-.16.24.955.955 0 00-.16.24l-.16.32c-.053.054-.08.134-.08.24-.107.107-.213.32-.32.64l-.32.8c-.107.267-.187.48-.24.64a9.117 9.117 0 00-.24.56.718.718 0 00-.08.32.613.613 0 01-.08.24 3.11 3.11 0 00-.24.64v.24c-.053 0-.08.054-.08.16 0 .107-.027.187-.08.24 0 .16-.027.32-.08.48 0 .16-.053.4-.16.72 0 .16-.027.294-.08.4v.4c-.107.32-.16.587-.16.8v.24c-.053.054-.08.134-.08.24v.4c-.053.16-.08.4-.08.72v.88c.053 0 .053-.026 0-.08v-.16c0-.16.027-.293.08-.4v-.56c0-.213.027-.373.08-.48v-.24c0-.266.027-.506.08-.72 0-.106.027-.186.08-.24v-.24c0-.16.027-.293.08-.4 0-.16.027-.293.08-.4 0-.106.027-.186.08-.24v-.32zm.24 4.48v-.16c-.053-.053-.08-.106-.08-.16v-.16 1.2h.08-.08v-.32c.053.054.08.027.08-.08v-.32zm.24-2.96a.711.711 0 00.08-.32c0-.053-.027-.08-.08-.08v.08c-.053.054-.08.16-.08.32s-.027.294-.08.4v.4a.718.718 0 00-.08.32v.32c.053 0 .08-.08.08-.24v-.32c.053-.053.08-.106.08-.16v-.24c.053-.053.08-.213.08-.48zm.48-2c0-.053-.027-.053-.08 0l-.08.08a.896.896 0 00-.08.4c0 .107-.053.267-.16.48v.32c.053.054.107-.026.16-.24 0-.213.027-.426.08-.64l.08-.24.08-.16zm1.2-3.44c.107-.213.16-.4.16-.56a.999.999 0 01.24-.4.711.711 0 00.08-.32.613.613 0 00.08-.24c-.053 0-.08.027-.08.08-.107.107-.16.187-.16.24a.613.613 0 01-.08.24c0 .054-.027.107-.08.16a.955.955 0 00-.16.24c0 .054-.053.24-.16.56a.623.623 0 00-.08.24c-.053 0-.107.054-.16.16l-.16.48c-.053.16-.08.32-.08.48-.107.214-.16.4-.16.56a.718.718 0 00-.08.32.955.955 0 00-.16.24c-.107.32-.16.507-.16.56 0 .107.053 0 .16-.32.107-.213.187-.4.24-.56a.613.613 0 00.08-.24c0-.106.053-.24.16-.4 0-.16.08-.4.24-.72 0-.16.053-.293.16-.4 0-.053.053-.186.16-.4zm1.68 3.12c.107-.373.213-.72.32-1.04.16-.373.293-.693.4-.96.267-.586.48-1.093.64-1.52.213-.48.4-.853.56-1.12.16-.213.24-.373.24-.48l.08-.16c0-.053.027-.133.08-.24.107-.16.16-.293.16-.4h.16c0-.053.027-.08.08-.08l-.08-.08c0-.053-.027-.08-.08-.08l-.08-.08h-.08l-.08.16-.16.16c-.16.214-.293.454-.4.72-.053.214-.133.374-.24.48-.053.107-.16.294-.32.56a1.838 1.838 0 01-.32.48c-.107.107-.213.32-.32.64a4.191 4.191 0 01-.56 1.52 9.117 9.117 0 00-.24.56l-.16.32a.711.711 0 01-.08.32.718.718 0 00-.08.32c0 .054-.027.16-.08.32-.107.32-.16.534-.16.64v.88c0 .107-.027.187-.08.24v.16c0 .107-.027.24-.08.4v.8a.896.896 0 00-.08.4c-.053.107-.08.267-.08.48 0 .054-.027.107-.08.16v1.2c.053.054.08.134.08.24v.24h.24l-.08-.08h.08l-.08-.08v-.4c0-.213.027-.4.08-.56 0-.373.027-.613.08-.72v-.64c.053-.32.08-.586.08-.8l.24-.96c.053-.213.107-.48.16-.8.107-.32.213-.693.32-1.12zm9.84-2.24c.267-.8.507-1.413.72-1.84.427-1.066.8-1.786 1.12-2.16.107-.266.16-.426.16-.48l.24-.24a3.54 3.54 0 00.32-.48l.08-.08h-.08v.08h-.08c-.053.054-.08.107-.08.16 0 .054-.027.08-.08.08-.107.16-.213.347-.32.56a2.59 2.59 0 01-.32.4l-.24.48a2.59 2.59 0 01-.32.4 9.117 9.117 0 00-.24.56 9.782 9.782 0 00-.32.72 8.588 8.588 0 01-.24.56c0 .107-.053.267-.16.48-.053.16-.133.347-.24.56 0 .054-.053.24-.16.56 0 .16-.027.267-.08.32v.24c-.053.054-.08.187-.08.4-.053.16-.08.374-.08.64a.896.896 0 00-.08.4c0 .16-.027.267-.08.32 0 .48-.053.987-.16 1.52v.64c0 .267.027.454.08.56-.107.107-.107.16 0 .16v-1.36a.711.711 0 00.08-.32v-.64c.053-.16.08-.4.08-.72a.893.893 0 00.08-.4v-.24c.053-.053.08-.133.08-.24l.4-1.6zm0 5.76v-.08c.053-.053.08-.106.08-.16 0-.053-.027-.08-.08-.08v-.4c-.053 0-.08.054-.08.16v.16c0 .214.027.347.08.4v.4-.4zm.16-2.8a.711.711 0 00.08-.32c0-.053-.027-.08-.08-.08-.053 0-.08.027-.08.08v.64l-.08.08v.8l.08-.16v-.48c.053-.053.08-.106.08-.16v-.4zm.32-1.76c0-.053-.027-.08-.08-.08v.08a.896.896 0 00-.08.4c0 .107-.027.187-.08.24v.24l-.08.16c.053 0 .08.027.08.08 0-.053.027-.133.08-.24 0-.213.027-.4.08-.56.053-.053.08-.133.08-.24v-.08zm1.6-4.4c-.053 0-.08.027-.08.08-.107.214-.16.347-.16.4-.16.16-.24.294-.24.4-.107.107-.16.267-.16.48a.919.919 0 01-.16.24l-.08.16c-.053.107-.107.24-.16.4a.896.896 0 00-.08.4c-.053.054-.08.134-.08.24a.613.613 0 01-.08.24.711.711 0 01-.08.32c-.053.054-.08.134-.08.24a.542.542 0 00-.16.4c0 .214.053.107.16-.32.107-.106.133-.16.08-.16 0-.053.027-.133.08-.24a.613.613 0 00.08-.24c.053-.106.107-.24.16-.4v-.16c.053 0 .08-.026.08-.08 0-.106.053-.213.16-.32l.24-.72c.107-.16.187-.293.24-.4.053-.16.107-.293.16-.4.107-.106.133-.16.08-.16 0-.053.027-.106.08-.16 0-.053.027-.133.08-.24h-.08zm25.516 17.84a35.762 35.762 0 01-1.2-.32 6.052 6.052 0 00-1.04-.24 4.96 4.96 0 01-.72-.16h-.72c-.213-.106-.346-.213-.4-.32a1.255 1.255 0 01-.32-.24l-.16-.16-.16-.16-.16-.16a1.268 1.268 0 00-.32-.24l-.24-.48a2.072 2.072 0 01-.48-1.04 3.968 3.968 0 01-.4-1.28c0-.16-.026-.32-.08-.48v-1.36l.16-.8.32-1.44c.107-.48.24-.906.4-1.28a26.55 26.55 0 01.8-2c.267-.64.48-1.12.64-1.44.214-.32.347-.506.4-.56.054-.106.134-.293.24-.56l.16-.32c.054-.053.134-.16.24-.32v-.08h.08l-.08-.08v.08c-.053.054-.08.107-.08.16l-.16.16c-.053.054-.08.107-.08.16a3.22 3.22 0 00-.48.8c-.106.267-.213.48-.32.64-.106.16-.24.4-.4.72a9.043 9.043 0 01-.32.72l-.4.8c-.106.427-.24.8-.4 1.12-.053.214-.133.48-.24.8a.623.623 0 00-.08.24l-.08.16c0 .107-.026.187-.08.24v.24a.896.896 0 00-.08.4c-.053.054-.08.16-.08.32a.896.896 0 00-.08.4c0 .16-.026.347-.08.56v1.12c0 .16.027.294.08.4v.48c.054.16.107.347.16.56.107.427.214.747.32.96.107.16.187.347.24.56.107.16.214.347.32.56.267.374.534.64.8.8.054.107.187.214.4.32 0 .107.054.16.16.16l.16.16c-.426-.053-.933-.186-1.52-.4a3.704 3.704 0 01-1.52-1.04c-.426-.533-.746-1.253-.96-2.16-.213-.96-.133-2.186.24-3.68.374-1.546 1.067-3.386 2.08-5.52 1.014-2.133 2.507-4.693 4.48-7.68a59.628 59.628 0 00-4.8 4.88c-1.333 1.547-2.746 3.334-4.24 5.36a40.754 40.754 0 00-3.84 6.48c-.106.16-.293.534-.56 1.12-.213.587-.346 1.067-.4 1.44-.053.694-.266.934-.64.72-.106-.053-.32 0-.64.16-.373.214-.746.24-1.12.08-.266-.16-.64-.293-1.12-.4-.48-.053-.88-.16-1.2-.32-.48-.373-.88-.933-1.2-1.68-.32-.8-.4-1.84-.24-3.12.107-1.28.534-2.853 1.28-4.72.694-1.866 1.84-4.133 3.44-6.8l.32-.48.32-.64c.267-.32.48-.666.64-1.04a7.64 7.64 0 01.64-.96c.907-1.386 1.76-2.693 2.56-3.92.8-1.28 1.307-2.053 1.52-2.32.054-.053.107-.08.16-.08.374 0 .64.054.8.16.107.054.24.08.4.08a.672.672 0 01.56.08c-.533.694-.96 1.334-1.28 1.92-.266.32-.4.507-.4.56.054 0 .027.054-.08.16-.053.214.187-.106.72-.96.32-.48.454-.693.4-.64l.4-.56c.054-.213.134-.373.24-.48.054 0 .08.027.08.08h.08c.107.16.267.32.48.48.214.16.374.294.48.4.107.107.24.267.4.48.16.16.24.294.24.4l-.72 1.44c-.48.96-1.066 2.187-1.76 3.68-.64 1.44-1.333 3.04-2.08 4.8a49.19 49.19 0 00-1.84 5.04l.88-2.08a61.722 61.722 0 014.32-5.52 53.314 53.314 0 014.56-4.64c1.76-1.6 3.574-2.933 5.44-4 .107-.16.24-.32.4-.48.267-.266.454-.4.56-.4.32 0 .587.054.8.16.107.054.294.08.56.08.267-.053.454 0 .56.16.107.16.267.32.48.48.214.16.374.294.48.4.107.107.24.267.4.48.16.16.24.294.24.4 0 .054-.266.587-.8 1.6-.48.96-1.066 2.187-1.76 3.68a125.08 125.08 0 00-2.16 4.96 49.19 49.19 0 00-1.84 5.04c-.48 1.6-.773 3.014-.88 4.24-.106 1.227.16 2 .8 2.32.48.267.987.24 1.52-.08.587-.373 1.174-.933 1.76-1.68.64-.8 1.28-1.706 1.92-2.72a64.144 64.144 0 001.84-3.28c1.387-2.613 2.827-5.706 4.32-9.28h.4c.267 0 .427.027.48.08.107.107.214.134.32.08.107-.106.187-.106.24 0 0 .054.054.054.16 0 .16-.053.294-.08.4-.08.16-.053.267-.08.32-.08.054 0 .054.054 0 .16-.053.107-.266.694-.64 1.76a77.051 77.051 0 01-1.52 3.92 91.839 91.839 0 01-2.24 4.96 38.753 38.753 0 01-2.8 4.88c-1.013 1.494-2.08 2.694-3.2 3.6-1.066.96-2.16 1.36-3.28 1.2zm-16.96-11.92l-.16.24c-.053 0-.08.027-.08.08v.16l-.08.08v.16c-.053.054-.08.16-.08.32-.053 0-.08.027-.08.08v.24c-.053.054-.08.107-.08.16h-.08l.08.08v-.16c.054-.053.08-.106.08-.16 0-.053.027-.106.08-.16v-.16c.107-.106.16-.213.16-.32.054-.053.054-.106 0-.16l.16-.32v-.16h.08zm1.68-3.6l-.08.08c-.053.054-.133.187-.24.4-.106.214-.16.374-.16.48-.053 0-.08.027-.08.08l-.24.48c-.106.214-.16.347-.16.4-.106.107-.16.214-.16.32l.08-.08c0-.053.027-.08.08-.08v-.16c0-.053.027-.08.08-.08v-.08c0-.053.027-.106.08-.16l.08-.08c0-.053.027-.106.08-.16 0-.053.027-.08.08-.08v-.08l.08-.08c.107-.213.214-.4.32-.56.054-.16.107-.24.16-.24v-.32zm1.2-2c0-.053-.026-.08-.08-.08-.053 0-.08.027-.08.08-.106.16-.213.347-.32.56l-.16.32c0 .054-.053.16-.16.32-.106.214-.16.347-.16.4 0 .054.08-.053.24-.32.107-.106.16-.213.16-.32l.24-.48.16-.32.16-.16zm.08-1.84c.267-.48.534-.933.8-1.36.267-.48.507-.88.72-1.2.427-.746.8-1.386 1.12-1.92.374-.586.667-1.04.88-1.36.267-.32.4-.533.4-.64a3.78 3.78 0 01.32-.48l.16-.4c.054-.053.134-.16.24-.32 0-.053.027-.08.08-.08v-.08c-.053 0-.08.027-.08.08-.053.054-.08.107-.08.16 0 .054-.026.107-.08.16l-.16.16c-.213.267-.4.56-.56.88-.16.267-.293.48-.4.64l-.48.72c-.16.267-.293.48-.4.64-.106.16-.266.427-.48.8a6.37 6.37 0 01-.56 1.04 7.99 7.99 0 00-.48.8l-.48.72c-.16.267-.293.507-.4.72-.106.16-.266.427-.48.8-.213.374-.346.64-.4.8-.053.107-.16.294-.32.56-.106.267-.24.56-.4.88a9 9 0 00-.56.96l-.56 1.12a8.182 8.182 0 00-.48.96c-.106.267-.213.587-.32.96-.16.32-.293.614-.4.88 0 .054-.026.107-.08.16.054 0 .08-.026.08-.08l.08-.16c0-.053.054-.24.16-.56l.16-.32c.054-.053.08-.106.08-.16 0-.053.027-.106.08-.16.267-.48.427-.773.48-.88 0-.16.134-.453.4-.88.054-.16.134-.346.24-.56l.24-.48a.983.983 0 01.16-.24l.16-.32.16-.32.16-.32c.16-.266.347-.613.56-1.04.214-.426.454-.853.72-1.28zm.4.88c.107-.213.16-.346.16-.4.054-.053.134-.16.24-.32.107-.16.187-.293.24-.4.107-.106.214-.266.32-.48.107-.16.267-.453.48-.88.267-.426.48-.773.64-1.04.16-.266.294-.506.4-.72.16-.266.294-.453.4-.56.107-.106.16-.186.16-.24a.62.62 0 01.08-.24l.16-.32c0-.053-.026-.08-.08-.08v.08c-.053.054-.08.107-.08.16-.213.32-.346.534-.4.64a87.96 87.96 0 01-.24.24.9.9 0 01-.16.24l-.4.8a1.304 1.304 0 00-.24.32c0 .054-.053.134-.16.24l-.16.32c0 .054-.053.16-.16.32-.106.107-.16.214-.16.32a.597.597 0 01-.08.24c-.16.16-.293.4-.4.72-.106.107-.213.24-.32.4a2.93 2.93 0 01-.16.4 1.304 1.304 0 00-.24.32l-.16.32c-.053.107-.053.107 0 0 .107-.106.214-.24.32-.4zm8.24 14.4c.054.054.054.054 0 0a.893.893 0 01-.08-.4c0-.053-.026-.106-.08-.16v-.4c0-.053-.026-.08-.08-.08v-.64c0-.053-.026-.08-.08-.08v.8c.054 0 .08.027.08.08v.32l.08.16.08.24.08.16zm1.28 2.16c.054.054.08.054.08 0l-.08-.08c-.053 0-.106-.026-.16-.08 0-.106-.053-.16-.16-.16 0-.053-.026-.106-.08-.16 0-.053-.053-.133-.16-.24-.053-.053-.08-.106-.08-.16l-.08-.08c0-.053-.026-.106-.08-.16 0-.053-.053-.133-.16-.24 0-.053-.026-.08-.08-.08v-.16c-.053-.053-.08-.106-.08-.16-.053-.053-.08-.053-.08 0v.08l.16.32c.107.214.187.347.24.4v.08c.107.107.16.187.16.24l.16.16.16.16c0 .054.027.08.08.08l.16.16c0 .054.027.08.08.08zm.24-10.56h-.08c0 .054-.026.107-.08.16-.106.32-.186.534-.24.64-.16.16-.24.32-.24.48-.106.214-.213.48-.32.8 0 .107-.026.187-.08.24v.08l-.16.32a.718.718 0 00-.08.32.597.597 0 01-.08.24 1.33 1.33 0 00-.08.4.597.597 0 01-.08.24v.32a.896.896 0 00-.08.4c-.106.32-.16.587-.16.8a.896.896 0 00-.08.4v.32c.054.107.08.107.08 0 0-.106.027-.266.08-.48.054-.213.054-.32 0-.32 0-.053.027-.186.08-.4.054-.16.08-.293.08-.4 0-.106.027-.266.08-.48a.88.88 0 00.08-.4c.054-.16.134-.346.24-.56l.16-.48c.054-.213.107-.4.16-.56.107-.266.187-.506.24-.72.107-.266.214-.453.32-.56.054-.213.107-.373.16-.48a.698.698 0 00.08-.32zm2.32 1.76c-.053 0-.106-.026-.16-.08h-.16v.08h.08l-.08.08c-.106.107-.16.294-.16.56a.983.983 0 00-.16.24l-.16.16v.4a.698.698 0 01-.08.32c0 .107-.026.187-.08.24a.983.983 0 00-.16.24c-.053.16-.08.347-.08.56a.623.623 0 00-.08.24c.054 0 .08.027.08.08l.08.16v1.04c0 .107-.026.187-.08.24v.16c.054.107.08.214.08.32 0 .054.027.107.08.16v.08c0 .054.027.054.08 0h.16-.08l.08-.08h-.08c0-.053-.026-.106-.08-.16 0-.053.027-.133.08-.24.054-.16.054-.24 0-.24v-.32a.336.336 0 000-.32c0-.106.027-.24.08-.4v-.32c.054-.16.08-.32.08-.48.107-.426.187-.72.24-.88.107-.266.16-.48.16-.64.054-.213.107-.373.16-.48.107-.106.134-.16.08-.16-.053-.053-.053-.133 0-.24v-.24l.08.08c0-.053.027-.08.08-.08l-.08-.08zm-2.16-2.16c-.053.267.16-.053.64-.96l.32-.64c.054-.053.08-.106.08-.16.054-.053.134-.186.24-.4l.48-.72c.054 0 .08-.026.08-.08l.08-.08h-.08v.08a13.314 13.314 0 00-1.44 2.24c-.266.32-.373.48-.32.48 0 .107-.026.187-.08.24zm.64 11.76h.08c.054.054.107.08.16.08l.08.08c.054 0 .107.027.16.08.054-.053.107-.053.16 0l.32.16c.054.054.107.08.16.08h-.08.16c.054.054.107.08.16.08 0 .054.027.08.08.08-.053 0-.106-.026-.16-.08h-.24c0-.053-.026-.08-.08-.08-.053 0-.106-.026-.16-.08h-.08c-.053-.053-.106-.08-.16-.08l-.08-.08h-.16c-.053 0-.08-.026-.08-.08l-.16-.08c-.053 0-.08-.026-.08-.08zm41.269-19.04c.053.107.133.134.24.08.107-.053.16-.026.16.08l-.48.72a34.96 34.96 0 01-1.12 1.84 123.14 123.14 0 01-1.52 2.4l-1.76 2.72c-.427.587-1.04 1.44-1.84 2.56a36.526 36.526 0 01-2.32 3.12c0 .054-.027.107-.08.16-.64.747-1.387 1.52-2.24 2.32-.8.8-1.68 1.547-2.64 2.24a16.008 16.008 0 01-2.88 1.76 8.436 8.436 0 01-3.12.96c-3.2.32-5.787-.32-7.76-1.92-1.973-1.6-3.013-3.92-3.12-6.96v-.96c0-.373.027-.746.08-1.12 0-.106.027-.16.08-.16v-.32c.267-1.866.773-3.813 1.52-5.84.747-2.08 1.84-4.026 3.28-5.84.8-1.013 1.76-1.893 2.88-2.64 1.173-.8 2.32-1.386 3.44-1.76 1.12-.426 2.16-.586 3.12-.48.96.054 1.707.4 2.24 1.04.267.267.48.507.64.72.213.214.4.427.56.64.427.267.853.667 1.28 1.2.48.48.693 1.174.64 2.08v.32c-.107 2.027-.427 3.574-.96 4.64-.533 1.067-1.093 1.84-1.68 2.32-.587.427-1.147.667-1.68.72h-1.04c-.267-.053-.373-.133-.32-.24.053-.106-.053-.213-.32-.32-.267-.053-.293-.133-.08-.24.213-.106.213-.213 0-.32-.267-.106-.267-.186 0-.24.267-.106.267-.186 0-.24-.213 0-.24-.08-.08-.24a.945.945 0 01.24-.16c.8 0 1.44-.213 1.92-.64.48-.48.853-1.013 1.12-1.6.267-.64.453-1.306.56-2 .107-.746.16-1.413.16-2 0-.586-.053-.986-.16-1.2-.107-.213-.213-.346-.32-.4v-.08c-.48-.32-1.013-.266-1.6.16-.32.214-.8.694-1.44 1.44-.587.694-1.253 1.574-2 2.64a46.94 46.94 0 00-2.16 3.52 31.586 31.586 0 00-1.84 4.08c-.267.587-.507 1.307-.72 2.16-.213.8-.373 1.627-.48 2.48a5.842 5.842 0 00.08 2.16c.16.694.453 1.254.88 1.68.587.534 1.307.827 2.16.88.8.054 1.653-.106 2.56-.48a14.141 14.141 0 002.64-1.44c.907-.64 1.76-1.333 2.56-2.08.8-.746 1.52-1.44 2.16-2.08.267-.266.507-.533.72-.8l.72-.72c.267-.32.56-.666.88-1.04.32-.426.533-.746.64-.96.48-.64 1.067-1.413 1.76-2.32.747-.96 1.467-1.893 2.16-2.8.8-1.013 1.627-2.106 2.48-3.28l.24-.24c.107-.106.187-.08.24.08.053.214.107.24.16.08.053-.16.08-.133.08.08 0 .16.053.187.16.08.16-.16.267-.16.32 0zm-21.36-3.2l-.72.72c-.213.214-.4.454-.56.72l-.24.32c0-.053-.027-.026-.08.08-.053.107.133-.08.56-.56.16-.213.267-.346.32-.4 0 .054.08-.053.24-.32.107-.106.187-.213.24-.32l.24-.24v-.08.08zm-6 10.16c0-.053 0-.053 0 0-.053.054-.08.107-.08.16l-.08.16v.24c-.053.054-.08.107-.08.16v.16c-.053 0-.08.027-.08.08v.16h.08v-.32c0 .054.027.08.08.08v-.16c0-.053.027-.08.08-.08v-.24c0-.106.027-.186.08-.24v-.16zm-.24-1.44a.613.613 0 00.08-.24c0-.106.053-.24.16-.4.107-.266.213-.506.32-.72.053-.213.187-.48.4-.8.107-.213.213-.453.32-.72.16-.266.32-.56.48-.88.213-.32.4-.613.56-.88.213-.266.373-.533.48-.8.32-.426.613-.826.88-1.2.267-.373.48-.666.64-.88.16-.213.24-.346.24-.4a2.42 2.42 0 00.24-.32l.4-.4v-.08l-.08.08-.24.24c-.16.16-.293.32-.4.48a2.59 2.59 0 01-.32.4 1.873 1.873 0 00-.32.48 2.59 2.59 0 01-.32.4c-.107.107-.24.267-.4.48-.16.214-.293.454-.4.72a1.873 1.873 0 00-.32.48 1.873 1.873 0 00-.32.48l-.24.24a.613.613 0 01-.08.24c-.107.214-.213.4-.32.56a8.588 8.588 0 01-.24.56c-.053.054-.133.187-.24.4l-.16.32a.613.613 0 01-.08.24c-.053.107-.107.24-.16.4l-.16.32a9.782 9.782 0 00-.32.72 5.603 5.603 0 00-.24.72c-.107.32-.187.534-.24.64-.107.32-.16.534-.16.64v.16-.16c.053-.106.107-.24.16-.4 0-.16.053-.32.16-.48l.24-.64zm1.12-.96c-.053.054-.133.24-.24.56l-.08.08a.711.711 0 01-.08.32c-.053.054-.08.107-.08.16v.08c-.053.054-.08.107-.08.16v.08l.08-.16.08-.16v-.08c.053-.053.08-.106.08-.16l.08-.16h.08v-.24a.919.919 0 00.16-.24.711.711 0 00.08-.32l-.08.08zm.8-1.52l-.08.08c-.053.054-.133.187-.24.4 0 .107-.08.24-.24.4l-.08.16c.053 0 .08.054.08.16 0-.053.027-.133.08-.24.107-.106.16-.186.16-.24 0-.106.053-.213.16-.32.053-.16.107-.266.16-.32v-.08zm.08-.32c0 .107.08.027.24-.24l.32-.48a.613.613 0 00.08-.24 2.42 2.42 0 00.24-.32c.107-.106.24-.293.4-.56.16-.266.293-.48.4-.64.107-.16.187-.293.24-.4.107-.16.213-.293.32-.4l.16-.32c.053-.053.08-.106.08-.16 0-.053-.027-.08-.08-.08-.053 0-.08.027-.08.08-.107.214-.187.347-.24.4 0 .054-.053.107-.16.16-.053.054-.08.107-.08.16a.955.955 0 00-.16.24c0 .054-.053.134-.16.24a.919.919 0 01-.16.24l-.08.16a.999.999 0 00-.24.4 1.255 1.255 0 00-.24.32c0 .107-.027.187-.08.24a.955.955 0 00-.16.24l-.16.32a.955.955 0 00-.16.24.955.955 0 00-.16.24c0 .054-.027.107-.08.16zm1.92 2.4l.8-1.6c.213-.32.4-.613.56-.88.213-.32.4-.613.56-.88.373-.426.667-.853.88-1.28.267-.426.507-.72.72-.88.16-.213.24-.346.24-.4.053-.106.133-.24.24-.4.107-.16.187-.266.24-.32h.16v-.08c.053 0 .053-.026 0-.08 0-.053-.027-.08-.08-.08l-.08-.08-.08-.08c0 .054-.027.107-.08.16v.08c-.053 0-.107.027-.16.08-.213.16-.373.347-.48.56a1.838 1.838 0 01-.32.48l-.4.4-.4.4c-.107.107-.24.294-.4.56a5.58 5.58 0 01-.4.8c0 .054-.053.134-.16.24l-.24.24a.919.919 0 01-.16.24.955.955 0 00-.16.24c-.107.214-.213.4-.32.56-.107.107-.213.294-.32.56-.053.054-.08.107-.08.16 0 .054-.027.107-.08.16 0 .054-.027.107-.08.16v.08a.613.613 0 01-.08.24v.24a3.11 3.11 0 00-.24.64 3.067 3.067 0 01-.24.64l-.32.8a9.419 9.419 0 01-.32.72c0 .16-.053.347-.16.56a.711.711 0 01-.08.32v.48h.16v-.08h.08l-.08-.08v-.16c.053-.053.08-.133.08-.24.053-.053.08-.106.08-.16 0-.053.027-.133.08-.24.107-.213.16-.346.16-.4.053-.053.08-.133.08-.24.053-.053.08-.133.08-.24l.16-.32c0-.16.053-.293.16-.4v-.16c.053-.053.08-.106.08-.16.107-.213.16-.346.16-.4l.24-.48zm48.181-5.2c0 .107.054.134.16.08.16-.053.24-.026.24.08l-.48.72c-.266.48-.64 1.094-1.12 1.84-.426.694-.933 1.494-1.52 2.4l-1.76 2.72c-.213.267-.4.507-.56.72-.106.16-.24.347-.4.56-.16.214-.346.454-.56.72-.213.267-.506.64-.88 1.12-.053 0-.08.027-.08.08a42.612 42.612 0 01-2.24 2.4c-.8.8-1.68 1.547-2.64 2.24a14.898 14.898 0 01-2.96 1.76 9.42 9.42 0 01-3.12.88c-.853.16-1.76.187-2.72.08v-.08h-.56a.893.893 0 00-.4-.08c-1.44-.266-2.64-.693-3.6-1.28-.906-.586-1.6-1.253-2.08-2-.533-.8-.906-1.6-1.12-2.4a9.934 9.934 0 01-.32-2.4 14.669 14.669 0 01.24-2.72l.16-.48c.48-2.186 1.334-4.4 2.56-6.64 1.12-1.813 2.267-3.173 3.44-4.08 1.174-.96 2.08-1.653 2.72-2.08 1.44-.746 2.827-1.173 4.16-1.28 1.387-.106 2.427.267 3.12 1.12l.32.32.64.32c.32.107.64.32.96.64.32.32.587.747.8 1.28.267.48.4 1.067.4 1.76v.4a9.55 9.55 0 00-.16.88c-.053.32-.133.694-.24 1.12a10.556 10.556 0 01-1.28 3.2 13.647 13.647 0 01-2 2.56c-1.493 1.494-3.093 2.614-4.8 3.36-1.706.747-2.986 1.254-3.84 1.52-.106.8-.026 1.574.24 2.32.267.694.774 1.174 1.52 1.44.16.107.32.16.48.16.16 0 .347.027.56.08h.88c.854-.106 1.707-.373 2.56-.8a15.34 15.34 0 002.56-1.52c.8-.586 1.547-1.2 2.24-1.84a62.129 62.129 0 001.92-2c.534-.533.987-1.013 1.36-1.44.374-.426.64-.773.8-1.04a63.743 63.743 0 011.68-2.24c.64-.8 1.227-1.546 1.76-2.24a90.49 90.49 0 011.76-2.32l.24-.24c.107-.106.187-.106.24 0 .054.267.107.32.16.16.054-.16.08-.16.08 0 0 .214.054.267.16.16.16-.16.267-.16.32 0zm-13.52-3.12c-.266.214-.666.614-1.2 1.2-.533.587-1.12 1.334-1.76 2.24a40.74 40.74 0 00-2 2.96 32.361 32.361 0 00-1.76 3.6c-.053.054-.08.107-.08.16 0 .054-.026.107-.08.16-.053.16-.133.374-.24.64a5.502 5.502 0 01-.24.72c1.174-.586 2.187-1.173 3.04-1.76a34.516 34.516 0 002.4-1.84l.32-.32c.96-.906 1.68-1.786 2.16-2.64.48-.853.827-1.6 1.04-2.24.214-.693.32-1.226.32-1.6l.08-.64c-.053-.266-.106-.426-.16-.48a.905.905 0 00-.16-.24v-.08h-.08c-.426-.373-.96-.32-1.6.16zm-6.16-.08a8.497 8.497 0 01-.64.72c-.213.214-.4.427-.56.64l-.24.4c0-.053-.026-.026-.08.08-.053.107.134-.08.56-.56.16-.213.267-.346.32-.4 0-.053.08-.16.24-.32.267-.266.4-.453.4-.56h.08v-.08l-.08.08zm-6 10.16v.16c-.053 0-.08.054-.08.16v.24c-.053.054-.08.107-.08.16 0 .054-.026.08-.08.08v.32-.08c.054-.053.08-.133.08-.24l.08-.08c0-.053.027-.08.08-.08v-.64zm-.16-1.44c0-.106.08-.32.24-.64.107-.266.187-.506.24-.72l.4-.8c.107-.213.214-.453.32-.72.16-.266.347-.56.56-.88.16-.32.32-.613.48-.88.214-.266.4-.533.56-.8.32-.426.587-.826.8-1.2a7.25 7.25 0 01.72-.88c.16-.213.24-.346.24-.4.054-.053.134-.16.24-.32l.16-.16c0-.053.054-.133.16-.24h.08v-.08h-.08v.08h-.08c-.053.054-.08.107-.08.16 0 .054-.026.08-.08.08-.16.16-.293.32-.4.48-.106.16-.213.294-.32.4-.106.107-.24.267-.4.48-.106.16-.213.294-.32.4a3.54 3.54 0 01-.32.48c-.16.214-.293.454-.4.72l-.24.24c0 .054-.053.134-.16.24a1.813 1.813 0 01-.32.48.895.895 0 01-.16.24.597.597 0 01-.08.24c-.106.214-.213.4-.32.56-.16.267-.266.454-.32.56 0 .054-.053.187-.16.4l-.16.32a.597.597 0 01-.08.24c-.106.16-.213.4-.32.72-.106.214-.213.454-.32.72a9.043 9.043 0 01-.32.72c0 .214-.053.427-.16.64-.106.32-.16.534-.16.64v.08c-.053 0-.08.027-.08.08h.08v-.16a2.93 2.93 0 00.16-.4c0-.16.054-.32.16-.48.054-.32.134-.533.24-.64zm1.12-1.04c-.053 0-.08.027-.08.08 0 .054-.053.24-.16.56-.053 0-.08.027-.08.08-.053.054-.08.16-.08.32-.16.16-.213.24-.16.24 0 .16-.026.24-.08.24v.08c.054 0 .08-.026.08-.08l.08-.16v-.16c0-.053.027-.08.08-.08 0-.053.027-.106.08-.16l.08-.16a.597.597 0 00.08-.24c0-.053.027-.133.08-.24.107-.106.16-.213.16-.32h-.08zm.8-1.36c0-.053-.026-.08-.08-.08-.053 0-.08.027-.08.08-.106.214-.16.347-.16.4-.053.054-.133.187-.24.4a1.33 1.33 0 00-.08.32c0 .054.054-.026.16-.24.107-.213.187-.4.24-.56.107-.16.187-.266.24-.32zm.08-.4c0 .107.08.027.24-.24.107-.16.187-.32.24-.48.16-.16.294-.346.4-.56.107-.106.214-.293.32-.56.16-.266.294-.48.4-.64a1.7 1.7 0 00.32-.4c.107-.16.187-.293.24-.4l.16-.16c0-.053.027-.106.08-.16.054-.106.054-.133 0-.08l.08-.16h-.08c-.053 0-.08.027-.08.08-.106.214-.186.347-.24.4l-.32.32a.597.597 0 01-.08.24.983.983 0 00-.16.24 1.7 1.7 0 01-.32.4c-.053.107-.133.24-.24.4l-.16.32-.24.48-.16.32a.983.983 0 00-.16.24.983.983 0 00-.16.24c0 .054-.026.107-.08.16zm2.72.8c.214-.32.4-.613.56-.88.214-.32.4-.613.56-.88.32-.426.614-.853.88-1.28.267-.426.48-.746.64-.96.214-.16.32-.266.32-.32a4.26 4.26 0 01.24-.4c.107-.16.187-.266.24-.32h.16-.08c0-.053.027-.08.08-.08v-.08l-.08-.08c-.053 0-.08-.026-.08-.08-.053 0-.106-.026-.16-.08 0 .054-.026.107-.08.16l.08.08c-.053 0-.106.027-.16.08h-.08c-.16.16-.293.347-.4.56a1.813 1.813 0 01-.32.48l-.4.4-.4.4c-.106.107-.24.294-.4.56-.106.267-.24.534-.4.8-.106.107-.16.187-.16.24l-.24.24a.895.895 0 01-.16.24l-.24.24c-.106.214-.213.4-.32.56a9.117 9.117 0 00-.24.56c-.106.107-.16.214-.16.32-.053.054-.08.134-.08.24l-.16.48a3.067 3.067 0 01-.24.64 3.067 3.067 0 01-.24.64l-.32.8c-.106.267-.186.48-.24.64-.106.32-.16.534-.16.64-.053.16-.08.347-.08.56v.08l-.08.08.08.08h.16v-.08c.054 0 .054-.026 0-.08h-.08c.054-.053.08-.106.08-.16 0-.053.027-.133.08-.24 0-.053.054-.186.16-.4.107-.213.16-.346.16-.4v-.08c.054-.053.08-.106.08-.16v-.08c.054-.053.08-.106.08-.16v-.08c.054-.053.08-.133.08-.24.107-.213.16-.346.16-.4l.16-.32.08-.16c0-.053.027-.133.08-.24l.24-.48.8-1.6zm22.892 20.16a2.58 2.58 0 01-.96-.16c-.586-.213-.88-.506-.88-.88 0-.48-.026-.933-.08-1.36v-.96c0-.053.107-.373.32-.96.214-.533.507-1.12.88-1.76.374-.64.774-1.226 1.2-1.76.427-.586.854-.933 1.28-1.04.854-.16 1.334-.24 1.44-.24h.64c.32.054.667.054 1.04 0 .374-.106.694-.053.96.16.32.16.694.267 1.12.32.427.054.454.374.08.96-.16.32-.453.774-.88 1.36-.373.587-.773 1.2-1.2 1.84-.426.694-.826 1.334-1.2 1.92-.373.587-.64 1.014-.8 1.28-.266.534-.693.987-1.28 1.36-.586.427-1.146.4-1.68-.08zm-.32-3.04v-.08c.054-.053.054-.08 0-.08v.08h-.08v.24l-.08.08h.08v-.08l.08-.08.08-.08h-.08zm.48-.96c.054-.053.08-.106.08-.16 0-.053-.026-.053-.08 0-.053 0-.106.08-.16.24 0 .054-.026.107-.08.16v.16c.054-.053.08-.106.08-.16l.08-.08c.054-.053.08-.106.08-.16zm.4-.8h-.08c-.053.054-.08.107-.08.16 0 .054-.026.08-.08.08v.16c-.053.054-.053.08 0 .08l.08-.08c0-.053.027-.133.08-.24l.08-.08v-.08zm1.2-1.92c0 .107.08.027.24-.24.107-.106.134-.16.08-.16l.16-.16c.107-.106.16-.186.16-.24l-.32.32a1.222 1.222 0 01-.24.32l-.08.16zm-.08.16c0-.053-.026-.053-.08 0-.053.054-.08.107-.08.16l-.16.16c-.053 0-.08.027-.08.08v.16c-.053.054-.106.08-.16.08-.053.054-.08.134-.08.24-.053.054-.08.107-.08.16 0 .054-.026.107-.08.16v.08c-.106 0-.16.054-.16.16-.053.054-.08.134-.08.24 0-.053.027-.106.08-.16.107-.053.134-.08.08-.08l.08-.08.08-.08c0-.053.027-.106.08-.16a.895.895 0 00.16-.24l.16-.32c.107-.053.16-.106.16-.16 0-.053.027-.106.08-.16.054-.053.054-.08 0-.08l.08-.08v-.08zm-2.72 3.28l.08-.08c0-.106.054-.213.16-.32a.698.698 0 00.08-.32.895.895 0 00.16-.24.698.698 0 00.08-.32c.054-.053.134-.16.24-.32.107-.106.16-.213.16-.32.054-.053.08-.106.08-.16l.16-.16a7.99 7.99 0 01.48-.8c.16-.16.267-.32.32-.48.107-.16.214-.293.32-.4l.16-.16c0-.053.027-.106.08-.16a.597.597 0 00.08-.24h.08-.08c-.053 0-.08.027-.08.08a1.9 1.9 0 00-.32.48l-.32.32a.983.983 0 00-.16.24l-.16.32c-.16.16-.266.294-.32.4a.895.895 0 01-.16.24.597.597 0 01-.08.24c-.053.054-.133.187-.24.4-.106.214-.186.4-.24.56-.106.107-.16.214-.16.32-.106.107-.16.187-.16.24-.053.054-.08.107-.08.16 0 .054-.026.107-.08.16 0 .054-.026.08-.08.08v.24z" fill="#4B4212"/><path d="M70.28 115.648c.16-.213.267-.24.32-.08.053.107.08.294.08.56 0 .267-.027.64-.08 1.12-1.12 2.88-1.653 5.147-1.6 6.8.107 1.6.453 2.774 1.04 3.52.64.96 1.573 1.52 2.8 1.68.907.107 1.813.134 2.72.08a23.55 23.55 0 002.72-.32 21.188 21.188 0 01-2-4.8c-.427-1.706-.613-3.68-.56-5.92.107-2.24.48-4.853 1.12-7.84.64-3.04 1.653-6.64 3.04-10.8.907-2.826 1.68-5.066 2.32-6.72.693-1.706 1.253-2.986 1.68-3.84.48-.906.853-1.466 1.12-1.68.32-.266.56-.373.72-.32.16 0 .293.107.4.32.107.16.187.214.24.16.213-.16.32-.026.32.4 0 .427.133.72.4.88v.08l-.08.16-.32.64-.32.48-.24.56-.08.24-.08.16a.936.936 0 00.16-.24c0-.053.053-.186.16-.4l.08-.08c0-.053.027-.106.08-.16.053-.053.08-.106.08-.16 0-.053.027-.106.08-.16l.32-.64c.053-.053.08-.106.08-.16 0-.053.053-.133.16-.24.107.054.187 0 .24-.16l.32-.48.16-.64c.907.054 1.707.16 2.4.32.587.107 1.093.294 1.52.56.48.214.693.454.64.72-.053.16-.533 1.147-1.44 2.96a203.21 203.21 0 00-3.2 6.56 234.456 234.456 0 00-3.84 8.48 106.828 106.828 0 00-3.28 8.8c-.853 2.827-1.387 5.334-1.6 7.52-.16 2.134.293 3.6 1.36 4.4.16.16.24.294.24.4 3.04-.906 5.947-2.293 8.72-4.16 2.773-1.866 5.227-3.84 7.36-5.92 1.973-2.026 3.6-4 4.88-5.92a29.158 29.158 0 002.56-4.16 41.734 41.734 0 001.92-4.24c.267-.693.507-1.386.72-2.08.213-.693.4-1.36.56-2 .107-.426.267-1.146.48-2.16.213-1.066.4-2.266.56-3.6.16-1.386.213-2.8.16-4.24a15.67 15.67 0 00-.56-4.24c-.427-1.44-1.04-2.56-1.84-3.36-.747-.8-1.573-1.386-2.48-1.76a9.503 9.503 0 00-3.68-.56c-1.28.054-2.213.134-2.8.24-4.587.96-8.587 2.454-12 4.48-3.36 1.974-6.187 3.974-8.48 6-2.667 2.4-4.96 4.934-6.88 7.6l-1.28.4a2.64 2.64 0 00.08-.64c0-.426-.16-.533-.48-.32-.213.107-.373.107-.48 0a.89.89 0 01-.08-.4c0-.213.027-.453.08-.72 1.547-2.666 3.547-5.226 6-7.68a42.7 42.7 0 013.52-3.12 37.05 37.05 0 014.48-3.2 43.225 43.225 0 015.44-2.8c1.973-.906 4.133-1.68 6.48-2.32.213-.106.907-.293 2.08-.56 1.173-.266 2.613-.506 4.32-.72 1.707-.16 3.493-.16 5.36 0 1.013.16 2.267.534 3.76 1.12 1.547.587 2.96 1.627 4.24 3.12 1.28 1.494 2.267 3.547 2.96 6.16.693 2.614.747 6 .16 10.16a19.73 19.73 0 01-.72 3.28c-.32 1.387-.907 3.28-1.76 5.68-.853 2.347-2.053 4.88-3.6 7.6-1.547 2.72-3.547 5.494-6 8.32-2.4 2.774-5.333 5.28-8.8 7.52a20.756 20.756 0 01-2.32 1.44c-.8.427-1.627.854-2.48 1.28a27.33 27.33 0 01-4.56 1.6c-1.493.374-2.88.64-4.16.8-1.28.16-2.453.24-3.52.24-1.013.054-1.867.054-2.56 0l-1.76-.32a10.253 10.253 0 01-1.68-.32c-1.547-.373-2.8-.933-3.76-1.68a8.91 8.91 0 01-2.16-2.56c-.48-.96-.773-2-.88-3.12a16.842 16.842 0 010-3.28c.213-2.56 1.013-5.36 2.4-8.4.053-.213.133-.346.24-.4a.714.714 0 01.32-.08H69c.107 0 .213-.106.32-.32.053-.213.107-.213.16 0 .053.214.107.48.16.8.107.32.187.587.24.8.107.214.24.214.4 0zm14.24-33.36c-.053.054-.053.08 0 .08s.107-.026.16-.08c.16-.053.32-.133.48-.24.213-.106.453-.213.72-.32.053 0 .107-.026.16-.08a.709.709 0 01.32-.08l.32-.16c.213-.106.347-.16.4-.16l.08-.08c.053 0 .107-.026.16-.08a.615.615 0 00.24-.08.612.612 0 01.24-.08c.053-.053.053-.08 0-.08-.053.054-.107.08-.16.08-.053.054-.107.08-.16.08h-.08c-.053.054-.107.08-.16.08-.053 0-.107.027-.16.08-.053 0-.107.027-.16.08h-.08a.615.615 0 01-.24.08l-.16.08a.615.615 0 01-.24.08c-.053 0-.08.027-.08.08h-.08c-.213.054-.48.187-.8.4-.213.107-.373.16-.48.16-.053 0-.133.054-.24.16zm-2.88 1.68c-.107.054-.133.08-.08.08.053 0 .107-.026.16-.08l.48-.24c.107-.053.213-.133.32-.24a1.25 1.25 0 01.32-.24c.16-.106.373-.213.64-.32l.32-.16.16-.16c.107-.053.08-.053-.08 0l-.48.24a1.856 1.856 0 00-.48.32c-.053 0-.133.054-.24.16-.107 0-.16.027-.16.08-.053 0-.107.027-.16.08h-.08c-.267.16-.427.267-.48.32l-.16.16zm-8.24 6.72c0 .054.027.054.08 0l.16-.08c.053 0 .08-.026.08-.08l.32-.32c.107-.16.213-.293.32-.4.267-.266.507-.453.72-.56.053-.053.08-.106.08-.16a263.996 263.996 0 01.48-.48c.107-.053.213-.133.32-.24.16-.16.293-.266.4-.32l.32-.32c.107-.053.16-.106.16-.16a.927.927 0 01.24-.16c.107-.106.24-.213.4-.32l.32-.32a1.25 1.25 0 01.32-.24c.107-.106.24-.213.4-.32.16-.16.32-.293.48-.4.16-.16.347-.293.56-.4.107-.106.187-.16.24-.16.107-.053.213-.133.32-.24.053-.053.107-.08.16-.08l.24-.24.48-.24c0-.053-.027-.053-.08 0-.053 0-.133.054-.24.16-.107 0-.187.027-.24.08l-.16.08c-.267.16-.427.267-.48.32-.053.054-.187.16-.4.32a1.258 1.258 0 01-.32.24c-.053 0-.133.054-.24.16-.053.054-.107.08-.16.08l-.08.08c-.107.054-.24.16-.4.32-.16.16-.32.267-.48.32-.107.16-.32.347-.64.56a2.63 2.63 0 01-.4.32l-.32.32a1.258 1.258 0 01-.32.24l-.24.24c-.373.267-.693.56-.96.88l-.64.64c-.16.107-.267.214-.32.32 0 .054-.053.134-.16.24l-.32.32zm-3.76 4.48c.427-.586.853-1.12 1.28-1.6.48-.533.907-1.013 1.28-1.44l.24-.24a.927.927 0 01.16-.24l.16-.16.08-.08c0-.053.053-.133.16-.24l-.08.08c-.213.214-.587.614-1.12 1.2l-.32.32a.936.936 0 01-.16.24l-.24.24c0 .054-.053.134-.16.24a.927.927 0 00-.16.24l-.24.24a4.183 4.183 0 00-.48.72 2.63 2.63 0 01-.32.4l-.08.08c0 .054-.027.107-.08.16.053 0 .08-.026.08-.08v-.08zm21.12-14.4c.053 0 .08-.026.08-.08-.053-.053-.08-.053-.08 0a.709.709 0 00-.32.08.71.71 0 01-.32.08c-.107 0-.24.054-.4.16-.427.107-.747.214-.96.32a5.266 5.266 0 00-.88.32l-.48.16c-.107.054-.24.134-.4.24l-.72.24c-.213.107-.347.16-.4.16a.927.927 0 00-.24.16l-.16.08c-.32.107-.533.214-.64.32a3.12 3.12 0 01-.4.16c-.107.054-.24.134-.4.24-.053.054-.187.134-.4.24l-.48.24-.32.16c-.107.107-.213.16-.32.16-.16.16-.4.32-.72.48a2.63 2.63 0 01-.4.32c-.16.054-.293.134-.4.24-.32.16-.613.374-.88.64l-1.76 1.28a21.69 21.69 0 00-1.52 1.2l-1.2 1.2c-.373.32-.72.64-1.04.96l-.88.88a6.97 6.97 0 00-.64.72c-.373.427-.613.694-.72.8-.053.107-.213.294-.48.56-.267.32-.4.507-.4.56-.107.107-.213.24-.32.4l-.08.08c.053 0 .08-.026.08-.08l.16-.16.24-.24c.053-.053.08-.106.08-.16.32-.373.613-.72.88-1.04.32-.32.56-.586.72-.8l.32-.32.48-.48c.213-.213.347-.373.4-.48a1.7 1.7 0 00.4-.32l.88-.88c.427-.426.853-.8 1.28-1.12l.24-.24c.107-.053.213-.133.32-.24.16-.16.293-.266.4-.32.107-.106.187-.16.24-.16l.24-.24a.936.936 0 00.24-.16.927.927 0 01.24-.16l.24-.24.08-.08c.053 0 .107-.026.16-.08a1.7 1.7 0 00.4-.32l.08-.08c.053 0 .107-.026.16-.08l.08-.08c.053 0 .107-.026.16-.08.107-.053.32-.186.64-.4.267-.16.453-.293.56-.4a2.63 2.63 0 00.4-.32l.32-.16a1.9 1.9 0 01.48-.32l.08-.08c.053 0 .107-.026.16-.08.107-.106.213-.16.32-.16.107-.106.213-.16.32-.16.107-.053.213-.133.32-.24a318.019 318.019 0 01.64-.32c.107-.106.213-.16.32-.16.107-.053.213-.133.32-.24a19.126 19.126 0 001.44-.64 3.12 3.12 0 00.4-.16 3.12 3.12 0 00.4-.16c.32-.106.533-.186.64-.24a3.12 3.12 0 01.64-.24c.213-.053.427-.133.64-.24l.16-.08a.615.615 0 00.24-.08c.107 0 .187-.026.24-.08.32-.106.533-.16.64-.16h.16zm1.36-1.2h-.08c-.053 0-.08.027-.08.08h-.08a.612.612 0 00-.24.08h-.24.08a.612.612 0 00-.24.08c-.213 0-.4.027-.56.08-.053 0-.107.027-.16.08a.615.615 0 01-.24.08.612.612 0 00-.24.08.615.615 0 01-.24.08c-.053 0-.08.027-.08.08 0-.053.027-.08.08-.08a.71.71 0 00.32-.08c.16 0 .267-.026.32-.08.16-.053.293-.08.4-.08l.48-.16h.16c.213-.106.4-.16.56-.16h.08v-.08zm20.8 21.12c-.107.374-.213.72-.32 1.04-.107.32-.187.587-.24.8-.107.267-.213.587-.32.96-.107.374-.24.8-.4 1.28-.16.427-.32.907-.48 1.44-.16.48-.347.934-.56 1.36-.213.534-.373.907-.48 1.12l-.24.48c-.107.214-.187.347-.24.4-.16.267-.32.56-.48.88-.16.267-.347.587-.56.96-.053.16-.133.347-.24.56l-.24.24c0 .054-.027.107-.08.16-.107.214-.267.48-.48.8-.107.267-.267.56-.48.88-.213.32-.453.694-.72 1.12a1.255 1.255 0 00-.24.32c0 .054-.053.134-.16.24a.919.919 0 01-.16.24.955.955 0 00-.16.24c-.107.16-.187.294-.24.4a1.222 1.222 0 01-.24.32c0 .107-.053.214-.16.32a1.255 1.255 0 00-.24.32c-.213.32-.4.56-.56.72-.373.64-.88 1.307-1.52 2l-.48.48c-.16.16-.293.32-.4.48l-.48.48-.48.48-.48.48c-.213.214-.4.374-.56.48a1.24 1.24 0 01-.32.24l-.24.24c-.107.107-.32.267-.64.48l-.24.24a1.284 1.284 0 00-.32.24 3.92 3.92 0 00-.56.48 1.24 1.24 0 01-.32.24c-.053 0-.133.054-.24.16-.107.107-.187.16-.24.16-.107.107-.187.16-.24.16-.16.107-.32.24-.48.4-.16.107-.347.214-.56.32-.107.107-.187.16-.24.16l-.24.24a.702.702 0 01-.32.08l-.24.24a.956.956 0 00-.24.16.908.908 0 01-.24.16c-.107.107-.213.16-.32.16a.908.908 0 01-.24.16c-.107.107-.187.16-.24.16l-.16.16h-.08c0 .054-.027.08-.08.08-.053 0-.107.027-.16.08-.053.054-.107.08-.16.08l-.32.16c-.053 0-.08.054-.08.16 0 .054.027.08.08.08h.08l.08-.08c0-.053.053-.08.16-.08l.08-.08.08-.08.08-.08a31.893 31.893 0 002.8-1.6c.107-.053.16-.106.16-.16a.603.603 0 00.24-.08l.16-.16c.053 0 .107-.026.16-.08.32-.213.507-.346.56-.4.213-.16.48-.346.8-.56.267-.213.507-.4.72-.56.267-.213.613-.506 1.04-.88.267-.266.48-.453.64-.56l.48-.48c.213-.16.4-.32.56-.48l.48-.48c.32-.373.667-.746 1.04-1.12.373-.373.8-.826 1.28-1.36.053-.106.187-.266.4-.48a.955.955 0 01.16-.24c.053-.106.133-.213.24-.32.213-.213.373-.4.48-.56.107-.106.187-.213.24-.32.053-.106.133-.213.24-.32.32-.48.667-.96 1.04-1.44.373-.533.72-1.093 1.04-1.68.373-.586.72-1.146 1.04-1.68.32-.586.613-1.173.88-1.76.32-.586.587-1.146.8-1.68l.72-1.44c.8-1.866 1.413-3.626 1.84-5.28.267-.746.453-1.44.56-2.08.16-.693.293-1.28.4-1.76.107-.426.187-.773.24-1.04.053-.266.107-.506.16-.72v-.64c0-.213.053-.48.16-.8.053-.32.08-.56.08-.72v-.72c.053 0 .08-.026.08-.08v-.24c.053 0 .08-.026.08-.08v-.24c.16-.16.16-.24 0-.24-.053-.053-.133-.08-.24-.08l-.16.16v.72c0 .107-.027.187-.08.24v.48c-.107.427-.187.854-.24 1.28l-.16 1.12c-.107.427-.187.8-.24 1.12 0 .267-.027.534-.08.8-.053.267-.133.56-.24.88-.107.32-.213.667-.32 1.04zm-16.08 21.76l-.16.08c.053-.053.107-.08.16-.08l.16-.16c.053-.053.107-.08.16-.08l.16-.16.32-.32c.16-.16.267-.24.32-.24.107-.053.16-.106.16-.16l.24-.24a1.24 1.24 0 00.32-.24l.08-.08h.08c.053-.106.107-.16.16-.16l.24-.24.24-.24.32-.32c.32-.32.533-.56.64-.72v-.08c-.053.054-.107.08-.16.08-.16.16-.347.374-.56.64l-.72.72c-.107.107-.187.16-.24.16a4.573 4.573 0 01-.72.72c-.107.107-.24.214-.4.32a87.96 87.96 0 01-.56.56.53.53 0 00-.24.24zm4.32-4.16l-.08.16c0-.053.027-.106.08-.16.213-.213.373-.4.48-.56.267-.266.453-.48.56-.64.16-.16.373-.426.64-.8.16-.213.32-.4.48-.56l.08-.08c0-.053.053-.133.16-.24.053-.106.053-.133 0-.08l-.16.16a4.92 4.92 0 00-.8 1.04c-.107.16-.24.32-.4.48-.107.16-.293.374-.56.64a1.255 1.255 0 00-.24.32l-.16.16c0 .054-.027.08-.08.08v.08zm2.96-3.84l-.08.16c.053 0 .107-.053.16-.16.107-.16.32-.453.64-.88.107-.16.187-.266.24-.32.053-.106.133-.213.24-.32l.32-.64c.267-.32.427-.586.48-.8.107-.16.187-.293.24-.4.107-.16.213-.346.32-.56l.4-.8c.213-.32.4-.693.56-1.12.213-.373.4-.746.56-1.12.16-.373.32-.72.48-1.04.267-.586.48-1.146.64-1.68.16-.533.293-.933.4-1.2.107-.266.16-.426.16-.48 0-.106.053-.266.16-.48.107-.266.133-.4.08-.4 0-.053.027-.16.08-.32.053-.106.053-.133 0-.08 0 .054-.027.107-.08.16 0 .054-.027.107-.08.16v.16c-.213.534-.373.987-.48 1.36-.053.16-.133.374-.24.64-.053.214-.133.4-.24.56l-.24.72c-.107.32-.213.614-.32.88l-.32.64-.16.32-.16.32c-.053.214-.16.427-.32.64l-.32.64c-.107.32-.187.534-.24.64-.053.054-.133.214-.24.48-.053.16-.187.4-.4.72-.053.16-.187.4-.4.72-.053.107-.133.24-.24.4-.053.16-.133.32-.24.48l-.48.72c-.107.107-.267.32-.48.64a1.88 1.88 0 01-.4.64zm7.84-20.64a23.287 23.287 0 01-.48 2.88c-.16.96-.373 1.84-.64 2.64-.107.534-.16.827-.16.88l-.16.32c0 .16-.027.32-.08.48l-.08.24c.053 0 .107-.106.16-.32.213-.48.427-1.226.64-2.24.053-.16.08-.293.08-.4 0-.106.027-.213.08-.32v-.24c.053-.053.08-.106.08-.16v-.24c.053-.053.08-.106.08-.16v-.4c.053-.16.133-.453.24-.88.16-.96.24-1.6.24-1.92v-.16l.08-.16v-.08h-.08v.24zM93 124.288h.08l.08-.08.32-.16c.16-.16.293-.266.4-.32a.908.908 0 00.24-.16.956.956 0 01.24-.16c.213-.106.4-.24.56-.4.16-.16.373-.32.64-.48.8-.64 1.307-1.066 1.52-1.28l.24-.24a1.24 1.24 0 00.32-.24l.72-.72c.64-.48 1.2-1.013 1.68-1.6.267-.266.533-.56.8-.88.267-.32.587-.693.96-1.12.053-.053.133-.186.24-.4.107-.053.213-.186.32-.4.107-.106.16-.186.16-.24l.24-.24c.053-.106.187-.266.4-.48.267-.373.533-.773.8-1.2l.8-1.28c.267-.426.507-.853.72-1.28.267-.48.533-.933.8-1.36.267-.48.48-.906.64-1.28.213-.426.427-.826.64-1.2.693-1.493 1.227-2.88 1.6-4.16.427-1.333.72-2.32.88-2.96.107-.373.187-.666.24-.88.053-.213.107-.4.16-.56v-.48c.053-.16.107-.373.16-.64.107-.266.16-.453.16-.56 0-.106.027-.213.08-.32 0-.266.027-.506.08-.72v-.08l.08-.08c0-.053-.027-.08-.08-.08v.24c0 .054-.027.107-.08.16v.08c-.053.107-.08.294-.08.56 0 .107-.027.187-.08.24-.107.64-.24 1.28-.4 1.92-.16.587-.293 1.067-.4 1.44a9.95 9.95 0 01-.48 1.52c-.053.214-.133.48-.24.8l-.24.72c-.107.16-.213.4-.32.72-.053.267-.16.587-.32.96a5.075 5.075 0 01-.48 1.12c-.16.374-.293.747-.4 1.12-.213.427-.373.72-.48.88a.623.623 0 00-.08.24l-.08.16c-.107.107-.16.214-.16.32a1.222 1.222 0 01-.24.32c0 .054-.053.187-.16.4-.107.107-.16.214-.16.32l-.24.48c-.16.267-.32.507-.48.72l-.32.64a1.255 1.255 0 00-.24.32c-.053.107-.133.24-.24.4-.107.107-.213.24-.32.4l-.24.48c-.16.214-.347.48-.56.8-.107.16-.213.347-.32.56l-.24.24c0 .054-.053.134-.16.24-.053.054-.08.107-.08.16l-.08.08a1.222 1.222 0 01-.24.32c-.373.48-.8 1.014-1.28 1.6a18.38 18.38 0 01-1.36 1.52l-.8.8c-.267.267-.56.534-.88.8-.267.267-.56.534-.88.8l-.8.64c-.107.107-.24.214-.4.32l-.32.32c-.107.107-.24.214-.4.32-.107.054-.24.134-.4.24-.16.16-.4.347-.72.56-.107.107-.24.214-.4.32l-.32.16c0 .054-.027.08-.08.08l-.24.16zm-1.44 1.76h.08l.08-.08h.08c0-.053.027-.08.08-.08a.956.956 0 01.24-.16c.16-.106.267-.16.32-.16-.107.054-.133.08-.08.08a1.24 1.24 0 00.32-.24c.107-.106.213-.16.32-.16.107 0 .213-.053.32-.16l.24-.24c.107-.106.187-.16.24-.16a1.24 1.24 0 00.32-.24l.08-.08c.053 0 .107-.026.16-.08l.08-.08.08-.08-.48.32-.16.16c-.053 0-.133.054-.24.16-.267.107-.613.32-1.04.64-.053.054-.107.08-.16.08l-.08.08a1.284 1.284 0 00-.32.24l-.32.16h-.16v.08zm-10.24-22.08c0-.053-.027-.053-.08 0v.24c-.053.054-.08.134-.08.24-.107.214-.16.4-.16.56 0 .054-.027.107-.08.16 0 .16-.027.267-.08.32v.08h.08v-.32c.053-.053.08-.106.08-.16v.08c0-.053.027-.106.08-.16 0-.106.053-.213.16-.32 0-.106-.027-.16-.08-.16a.707.707 0 00.08-.32l.08-.24zm1.12-3.68l-.08.08a3.11 3.11 0 00-.16.4.86.86 0 01-.16.48v.08a.616.616 0 00-.08.24.608.608 0 01-.08.24c0 .107-.027.187-.08.24v.24c0 .054-.027.107-.08.16v.16l.08-.24v-.08c.053-.053.08-.106.08-.16 0-.053.027-.106.08-.16 0-.16.027-.266.08-.32v-.08c.053 0 .08-.026.08-.08v-.08a.608.608 0 00.08-.24c0-.106.053-.213.16-.32.053-.213.08-.373.08-.48v-.08zm.72-2.16c0 .054-.027.08-.08.08-.107.32-.16.507-.16.56l-.16.32c0 .107-.027.24-.08.4-.107.107-.16.187-.16.24.053 0 .08.054.08.16 0-.053.053-.186.16-.4a.71.71 0 00.08-.32c0-.106.053-.266.16-.48.107-.266.16-.453.16-.56zm.16-.48c0 .107 0 .107 0 0 .053-.16.133-.32.24-.48.107-.266.187-.506.24-.72.107-.213.16-.346.16-.4l.24-.48a3.12 3.12 0 00.16-.4 7.59 7.59 0 00.16-.56c.213-.533.373-.88.48-1.04a4.48 4.48 0 00.24-.8c.107-.266.213-.453.32-.56.107-.16.133-.24.08-.24 0-.053.027-.133.08-.24l.08-.16.08-.16c0-.053-.027-.08-.08-.08v.08c-.053.054-.08.107-.08.16a1.25 1.25 0 00-.24.32.71.71 0 01-.08.32.615.615 0 01-.08.24l-.16.32c-.053.054-.107.16-.16.32a.54.54 0 01-.16.4 3.12 3.12 0 01-.16.4.615.615 0 01-.08.24c-.107.107-.16.214-.16.32 0 .054-.053.16-.16.32a7.59 7.59 0 01-.16.56l-.24.72-.16.48a3.12 3.12 0 01-.16.4l-.24.72zm2.8-4.24a.999.999 0 00-.24.4.71.71 0 01-.08.32c0 .107-.053.214-.16.32a.936.936 0 01-.16.24c-.053.054-.08.187-.08.4a.709.709 0 00-.08.32.615.615 0 01-.08.24 3.12 3.12 0 01-.16.4l-.24.24a3.12 3.12 0 01-.16.4c0 .054-.027.16-.08.32a3.74 3.74 0 00-.08.72c0 .16-.053.454-.16.88-.053.16-.133.32-.24.48-.107.16-.187.294-.24.4-.107.32-.16.56-.16.72l-.08.08v.08c.053.054.107.08.16.08v-.08h.08-.08c.107-.213.187-.4.24-.56.16-.213.24-.346.24-.4 0-.053.053-.16.16-.32.107-.213.16-.373.16-.48a8.52 8.52 0 00.24-.56c0-.106.053-.266.16-.48 0-.16.053-.346.16-.56.107-.266.187-.506.24-.72.053-.213.133-.373.24-.48l.24-.48v-.24c.053-.053.08-.133.08-.24a5.85 5.85 0 01.24-.64c.107-.16.133-.266.08-.32 0-.053.027-.133.08-.24v-.24h.16v-.08l-.08-.08h-.08c0-.053-.027-.08-.08-.08h-.16v.08l.08.08c-.053 0-.08.027-.08.08zm-5.68 10.96v-.08c.053 0 .08-.053.08-.16a.608.608 0 00.08-.24c0-.106.027-.213.08-.32v-.08c.053-.053.08-.133.08-.24.053-.053.08-.106.08-.16 0-.053.027-.106.08-.16.107-.533.187-.853.24-.96.053-.16.133-.453.24-.88.107-.213.16-.4.16-.56.053-.16.133-.32.24-.48.053-.213.107-.4.16-.56.053-.213.133-.453.24-.72a.891.891 0 00.08-.4 3.12 3.12 0 01.24-.64c.107-.213.187-.426.24-.64.053-.213.133-.453.24-.72.107-.266.187-.506.24-.72a12.401 12.401 0 00.56-1.36l.32-.64c.267-.746.533-1.413.8-2 .267-.586.507-1.04.72-1.36l.32-.64a.615.615 0 00.08-.24c0-.106.053-.213.16-.32.107-.213.16-.346.16-.4 0-.053.053-.16.16-.32h.08v-.08c-.053 0-.08.027-.08.08l-.08.08c-.053.054-.08.134-.08.24 0 .054-.027.107-.08.16-.16.267-.32.56-.48.88a3.56 3.56 0 01-.32.64c-.107.16-.24.4-.4.72a9.601 9.601 0 01-.32.72c-.053.107-.107.24-.16.4 0 .107-.053.24-.16.4l-.16.32a.615.615 0 01-.08.24l-.16.32a.615.615 0 01-.08.24c-.107.214-.213.48-.32.8-.107.214-.213.48-.32.8-.107.16-.213.4-.32.72-.107.32-.213.614-.32.88-.107.374-.187.64-.24.8a8.362 8.362 0 00-.24.56l-.24.96c-.107.16-.187.347-.24.56 0 .16-.027.32-.08.48l-.16.48c-.053.16-.107.347-.16.56a3.145 3.145 0 00-.24.64c0 .16-.027.294-.08.4l-.16.48-.16.48c-.107.427-.16.72-.16.88h-.08v.16zm-12.48 21.44a.4.4 0 000 .48c0 .267.027.454.08.56l.08.16.08.08v-.16c-.053-.053-.08-.133-.08-.24a1.299 1.299 0 01-.08-.32l-.08-.24v-.32h-.08.08zm4.4 4.32l.08.08h.4l.08.08v-.08h-.24c.053 0 .053-.026 0-.08-.053 0-.107-.026-.16-.08l-.08.08h-.16.08zm-1.52-.4c.053.054.16.08.32.08 0 .054.027.08.08.08h.16c.053.054.107.08.16.08h.16l-.08-.08h-.16c-.053 0-.08-.026-.08-.08h-.16l-.24-.16h-.16v.08zm-.8-.4c.053.054.133.08.24.08a.905.905 0 00.24.16h.16l-.16-.08c-.053-.053-.107-.08-.16-.08l-.08-.08a.62.62 0 00-.24-.08v.08zm.96 1.2a3.989 3.989 0 01-.96-.48 3.791 3.791 0 01-.4-.24 5.41 5.41 0 00-.56-.32 2.012 2.012 0 01-.48-.48l-.4-.4c-.373-.533-.613-1.013-.72-1.44a7.786 7.786 0 00-.16-.56 1.299 1.299 0 01-.08-.32v-.08h-.08v.32c.053.32.133.56.24.72v.16c.053.054.08.107.08.16l.16.32v.08c.053 0 .08.027.08.08l.08.08c0 .054.027.107.08.16l.16.16c0 .054.053.134.16.24.053.054.08.107.08.16l.16.16c0 .107.08.187.24.24.107.214.293.374.56.48l.16.16c.053 0 .107.027.16.08h.08c.053.054.107.08.16.08l.16.08a.905.905 0 00.24.16c.16 0 .293.054.4.16l.48.16c.16.054.32.08.48.08 0 .054.053.08.16.08.107 0 .187.027.24.08h.4-.08c-.053 0-.24-.053-.56-.16a14.4 14.4 0 01-.72-.16zm-1.76-1.92a1.274 1.274 0 00-.24-.32 1.235 1.235 0 01-.24-.32c-.107-.106-.16-.186-.16-.24-.107-.106-.16-.186-.16-.24 0-.053-.027-.08-.08-.08v-.08c-.053 0-.08-.026-.08-.08-.053 0-.08.027-.08.08 0 .054.027.107.08.16 0 .054.027.08.08.08v.08c.053.054.08.107.08.16l.24.24v.16c.053 0 .08.027.08.08l.08.08c0 .054.027.08.08.08.053.107.133.16.24.16l.08.08c.053.054.107.08.16.08v.08c.053 0 .08.027.08.08h.08c0 .054.027.08.08.08.107.107.187.16.24.16.107 0 .053-.053-.16-.16l-.08-.16c0 .054-.027.054-.08 0l-.16-.16-.16-.08z" fill="#fff"/></svg>